<?xml version="1.0" encoding="UTF-8"?>
<svg xmlns="http://www.w3.org/2000/svg" xmlns:xlink="http://www.w3.org/1999/xlink" width="19pt" height="13pt" viewBox="0 0 19 13" version="1.1">
<g id="surface1">
<path style=" stroke:none;fill-rule:nonzero;fill:rgb(94.509804%,0%,0.784314%);fill-opacity:1;" d="M 8.542969 0 L 10.460938 0 L 10.460938 12.96875 L 8.542969 12.96875 Z M 8.542969 0 "/>
<path style=" stroke:none;fill-rule:nonzero;fill:rgb(94.509804%,0%,0.784314%);fill-opacity:1;" d="M 0 5.375 L 19.003906 5.375 L 19.003906 7.597656 L 0 7.597656 Z M 0 5.375 "/>
<path style=" stroke:none;fill-rule:nonzero;fill:rgb(3.529412%,17.254902%,43.921569%);fill-opacity:1;" d="M 2.09375 0 L 8.195312 4.632812 L 8.195312 0 L 2.09375 0 "/>
<path style=" stroke:none;fill-rule:nonzero;fill:rgb(3.529412%,17.254902%,43.921569%);fill-opacity:1;" d="M 0 1.113281 L 0 5.003906 L 5.40625 5.003906 L 0 1.113281 "/>
<path style=" stroke:none;fill-rule:nonzero;fill:rgb(94.509804%,0%,0.784314%);fill-opacity:1;" d="M 0 0 L 0 0.554688 L 6.277344 5.003906 L 7.148438 5.003906 L 0 0 "/>
<path style=" stroke:none;fill-rule:nonzero;fill:rgb(3.529412%,17.254902%,43.921569%);fill-opacity:1;" d="M 16.914062 0 L 10.808594 4.632812 L 10.808594 0 L 16.914062 0 "/>
<path style=" stroke:none;fill-rule:nonzero;fill:rgb(3.529412%,17.254902%,43.921569%);fill-opacity:1;" d="M 19.003906 1.113281 L 19.003906 5.003906 L 13.601562 5.003906 L 19.003906 1.113281 "/>
<path style=" stroke:none;fill-rule:nonzero;fill:rgb(94.509804%,0%,0.784314%);fill-opacity:1;" d="M 19.003906 0 L 19.003906 0.554688 L 12.730469 5.003906 L 11.855469 5.003906 L 19.003906 0 "/>
<path style=" stroke:none;fill-rule:nonzero;fill:rgb(3.529412%,17.254902%,43.921569%);fill-opacity:1;" d="M 16.914062 12.96875 L 10.808594 8.335938 L 10.808594 12.96875 L 16.914062 12.96875 "/>
<path style=" stroke:none;fill-rule:nonzero;fill:rgb(3.529412%,17.254902%,43.921569%);fill-opacity:1;" d="M 19.003906 11.859375 L 19.003906 7.96875 L 13.601562 7.96875 L 19.003906 11.859375 "/>
<path style=" stroke:none;fill-rule:nonzero;fill:rgb(94.509804%,0%,0.784314%);fill-opacity:1;" d="M 19.003906 12.96875 L 19.003906 12.414062 L 12.730469 7.96875 L 11.855469 7.96875 L 19.003906 12.96875 "/>
<path style=" stroke:none;fill-rule:nonzero;fill:rgb(3.529412%,17.254902%,43.921569%);fill-opacity:1;" d="M 6.101562 7.96875 L 0 12.597656 L 0 7.96875 L 6.101562 7.96875 "/>
<path style=" stroke:none;fill-rule:nonzero;fill:rgb(3.529412%,17.254902%,43.921569%);fill-opacity:1;" d="M 8.195312 9.078125 L 8.195312 12.96875 L 2.789062 12.96875 L 8.195312 9.078125 "/>
<path style=" stroke:none;fill-rule:nonzero;fill:rgb(94.509804%,0%,0.784314%);fill-opacity:1;" d="M 8.195312 7.96875 L 8.195312 8.523438 L 1.917969 12.96875 L 1.046875 12.96875 L 8.195312 7.96875 "/>
</g>
</svg>
