<?xml version="1.0" encoding="UTF-8"?>
<svg xmlns="http://www.w3.org/2000/svg" xmlns:xlink="http://www.w3.org/1999/xlink" width="15pt" height="15pt" viewBox="0 0 15 15" version="1.1">
<g id="surface1">
<path style=" stroke:none;fill-rule:nonzero;fill:rgb(0%,0%,0%);fill-opacity:1;" d="M 7.480469 0 C 3.347656 0 0 3.347656 0 7.480469 C 0 11.613281 3.347656 14.960938 7.480469 14.960938 C 11.613281 14.960938 14.960938 11.613281 14.960938 7.480469 C 14.960938 3.347656 11.613281 0 7.480469 0 Z M 10.335938 3.808594 L 9.300781 3.808594 C 8.488281 3.808594 8.332031 4.195312 8.332031 4.761719 L 8.332031 6.007812 L 10.265625 6.007812 L 10.265625 7.960938 L 8.332031 7.960938 L 8.332031 12.976562 L 6.3125 12.976562 L 6.3125 7.960938 L 4.625 7.960938 L 4.625 6.007812 L 6.3125 6.007812 L 6.3125 4.566406 C 6.3125 2.894531 7.335938 1.984375 8.828125 1.984375 L 10.335938 1.988281 Z M 10.335938 3.808594 "/>
</g>
</svg>
