<?xml version="1.0" encoding="UTF-8"?>
<svg xmlns="http://www.w3.org/2000/svg" xmlns:xlink="http://www.w3.org/1999/xlink" width="16pt" height="15pt" viewBox="0 0 16 15" version="1.1">
<g id="surface1">
<path style=" stroke:none;fill-rule:nonzero;fill:rgb(0%,0%,0%);fill-opacity:1;" d="M 10.351562 7.457031 C 10.351562 6.273438 9.296875 5.3125 7.992188 5.3125 C 6.6875 5.3125 5.628906 6.273438 5.628906 7.457031 C 5.628906 8.640625 6.6875 9.601562 7.992188 9.601562 C 9.296875 9.601562 10.351562 8.640625 10.351562 7.457031 Z M 10.351562 7.457031 "/>
<path style=" stroke:none;fill-rule:nonzero;fill:rgb(0%,0%,0%);fill-opacity:1;" d="M 11.644531 7.578125 C 11.644531 9.410156 10.007812 10.898438 7.992188 10.898438 C 5.972656 10.898438 4.335938 9.410156 4.335938 7.578125 C 4.335938 7.25 4.386719 6.929688 4.488281 6.628906 L 3.40625 6.628906 L 3.40625 11.289062 C 3.40625 11.527344 3.617188 11.726562 3.875 11.726562 L 12.0625 11.726562 C 12.320312 11.726562 12.53125 11.527344 12.53125 11.289062 L 12.53125 6.628906 L 11.496094 6.628906 C 11.59375 6.929688 11.644531 7.25 11.644531 7.578125 Z M 11.644531 7.578125 "/>
<path style=" stroke:none;fill-rule:nonzero;fill:rgb(0%,0%,0%);fill-opacity:1;" d="M 10.667969 5.375 L 11.996094 5.375 C 12.285156 5.375 12.523438 5.152344 12.523438 4.878906 L 12.523438 3.691406 C 12.523438 3.417969 12.285156 3.191406 11.996094 3.191406 L 10.667969 3.191406 C 10.375 3.191406 10.136719 3.417969 10.136719 3.691406 L 10.136719 4.878906 C 10.136719 5.152344 10.375 5.375 10.667969 5.375 Z M 10.667969 5.375 "/>
<path style=" stroke:none;fill-rule:nonzero;fill:rgb(0%,0%,0%);fill-opacity:1;" d="M 7.980469 0 C 3.574219 0 0 3.347656 0 7.480469 C 0 11.613281 3.574219 14.960938 7.980469 14.960938 C 12.386719 14.960938 15.960938 11.613281 15.960938 7.480469 C 15.960938 3.347656 12.386719 0 7.980469 0 Z M 12.351562 12.992188 L 3.609375 12.992188 C 2.777344 12.992188 2.097656 12.417969 2.097656 11.578125 L 2.097656 3.382812 C 2.097656 2.542969 2.777344 1.96875 3.609375 1.96875 L 12.351562 1.96875 C 13.179688 1.96875 13.859375 2.542969 13.859375 3.382812 L 13.859375 11.578125 C 13.859375 12.417969 13.179688 12.992188 12.351562 12.992188 Z M 12.351562 12.992188 "/>
</g>
</svg>
