<?xml version="1.0" encoding="UTF-8"?>
<svg xmlns="http://www.w3.org/2000/svg" xmlns:xlink="http://www.w3.org/1999/xlink" width="16pt" height="16pt" viewBox="0 0 16 16" version="1.1">
<g id="surface1">
<path style=" stroke:none;fill-rule:nonzero;fill:rgb(0%,0%,0%);fill-opacity:1;" d="M 5.214844 14.011719 C 10.875 14.011719 13.972656 9.320312 13.972656 5.253906 C 13.972656 5.117188 13.96875 4.984375 13.964844 4.855469 C 14.566406 4.417969 15.085938 3.878906 15.5 3.261719 C 14.949219 3.503906 14.355469 3.671875 13.730469 3.746094 C 14.367188 3.363281 14.855469 2.761719 15.085938 2.042969 C 14.492188 2.394531 13.832031 2.652344 13.128906 2.789062 C 12.570312 2.191406 11.769531 1.816406 10.882812 1.816406 C 9.183594 1.816406 7.804688 3.195312 7.804688 4.894531 C 7.804688 5.136719 7.832031 5.371094 7.886719 5.597656 C 5.328125 5.46875 3.058594 4.242188 1.539062 2.378906 C 1.273438 2.835938 1.121094 3.363281 1.121094 3.925781 C 1.121094 4.996094 1.667969 5.9375 2.492188 6.488281 C 1.988281 6.472656 1.511719 6.335938 1.097656 6.105469 C 1.097656 6.117188 1.097656 6.128906 1.097656 6.144531 C 1.097656 7.636719 2.160156 8.878906 3.566406 9.164062 C 3.308594 9.234375 3.035156 9.269531 2.757812 9.269531 C 2.558594 9.269531 2.363281 9.25 2.175781 9.214844 C 2.570312 10.4375 3.707031 11.328125 5.054688 11.351562 C 4 12.179688 2.671875 12.671875 1.230469 12.671875 C 0.980469 12.671875 0.734375 12.65625 0.496094 12.628906 C 1.859375 13.5 3.476562 14.011719 5.214844 14.011719 "/>
</g>
</svg>
